# xmcd
#
# Track frame offsets:
#	182
#	13192
#	27245
#	39275
#	53112
#	64410
#	78107
#	91530
#	101202
#	116247
#	127187
#	140250
#	153062
#	164510
#	175557
#	186667
#	212945
#	225550
#	238020
#
# Disc length: 3348 seconds
#
# Revision: 2
# Processed by: cddbd v1.5.2PL0 Copyright (c) Steve Scherf et al.
# Submitted via: CDValet v3.31 - Copyright (c) 1997 Greg Leichner
#
DISCID=000d1213
DTITLE=Various Artist - All-Time 75 Blues Hits
DYEAR=1900
DGENRE=
TTITLE0=Elmore James - Dust My Room
TTITLE1=Muddy Waters - Rollin' Stone
TTITLE2=John Lee Hooker - I'm in the Mood
TTITLE3=Little Walter - Take Me Back
TTITLE4=Bo diddley - Say Bossman
TTITLE5=Howlin' Wolf - Highway 49
TTITLE6=B. B. King - Three O'clock Blues
TTITLE7=Bill Haley and His Comets - Blue Comet Blues
TTITLE8=Muddy Waters - Standin' Around Cryin'
TTITLE9=Howlin' Wolf - You'll Be Mine
TTITLE10=Little Walter - Mean Old World
TTITLE11=Muddy Waters - Hoochie Coochie Man
TTITLE12=B Diddley - Pretty Thing
TTITLE13=John Lee Hooker - Bottle Up and Go
TTITLE14=B. B. King - Catfish Blues
TTITLE15=Big Mama Thornton - Little Red Rooster
TTITLE16=Howlin' Wolf - Killing Floor
TTITLE17=Elmore James - Early in the Morning
TTITLE18=Muddy Waters - Close to You
EXTD=
EXTT0=
EXTT1=
EXTT2=
EXTT3=
EXTT4=
EXTT5=
EXTT6=
EXTT7=
EXTT8=
EXTT9=
EXTT10=
EXTT11=
EXTT12=
EXTT13=
EXTT14=
EXTT15=
EXTT16=
EXTT17=
EXTT18=
PLAYORDER=
